<?xml version="1.0" encoding="UTF-8"?>
<svg id="Camada_1" data-name="Camada 1" xmlns="http://www.w3.org/2000/svg" xmlns:xlink="http://www.w3.org/1999/xlink" viewBox="0 0 551.92 354.67">
  <defs>
    <style>
      .cls-1 {
        fill: url(#Céu_19-3);
        stroke: url(#Céu_1-6);
      }

      .cls-1, .cls-2, .cls-3 {
        stroke-width: 3px;
      }

      .cls-1, .cls-2, .cls-3, .cls-4, .cls-5, .cls-6 {
        stroke-miterlimit: 10;
      }

      .cls-7 {
        fill: url(#Gradiente_sem_nome_258);
      }

      .cls-8 {
        fill: url(#Gradiente_sem_nome_254);
      }

      .cls-9 {
        fill: navy;
      }

      .cls-10 {
        fill: url(#Gradiente_sem_nome_256);
      }

      .cls-11 {
        fill: url(#Gradiente_sem_nome_4);
      }

      .cls-12 {
        fill: url(#Gradiente_sem_nome_259);
      }

      .cls-13 {
        fill: url(#Gradiente_sem_nome_267);
      }

      .cls-2 {
        fill: url(#Céu_19-2);
        stroke: url(#Céu_1-5);
      }

      .cls-3 {
        stroke: url(#Céu_1-3);
      }

      .cls-3, .cls-5, .cls-6 {
        fill: none;
      }

      .cls-4 {
        fill: url(#Céu_19);
        stroke: url(#Céu_1-4);
      }

      .cls-4, .cls-5, .cls-6 {
        stroke-width: 5px;
      }

      .cls-5 {
        stroke: url(#Céu_1-2);
      }

      .cls-14 {
        fill: url(#Gradiente_sem_nome_266);
      }

      .cls-6 {
        stroke: url(#Céu_1);
      }
    </style>
    <linearGradient id="Gradiente_sem_nome_254" data-name="Gradiente sem nome 254" x1="191.52" y1="150.36" x2="304.5" y2="150.36" gradientTransform="translate(-25.6 64.99) rotate(-11.87)" gradientUnits="userSpaceOnUse">
      <stop offset="0" stop-color="#7bb9e7"/>
      <stop offset=".05" stop-color="#71b4e3"/>
      <stop offset=".14" stop-color="#58a6db"/>
      <stop offset=".25" stop-color="#2f90cd"/>
      <stop offset=".36" stop-color="#0078be"/>
      <stop offset=".4" stop-color="#0685a9"/>
      <stop offset=".45" stop-color="#0d9393"/>
      <stop offset=".52" stop-color="#129d82"/>
      <stop offset=".59" stop-color="#16a576"/>
      <stop offset=".7" stop-color="#18a96f"/>
      <stop offset="1" stop-color="#19ab6e"/>
    </linearGradient>
    <linearGradient id="Gradiente_sem_nome_258" data-name="Gradiente sem nome 258" x1="147.96" y1="84.59" x2="148.77" y2="33.29" gradientUnits="userSpaceOnUse">
      <stop offset="0" stop-color="#7bb9e7"/>
      <stop offset=".07" stop-color="#71b4e3"/>
      <stop offset=".17" stop-color="#58a6db"/>
      <stop offset=".31" stop-color="#2f90cd"/>
      <stop offset=".45" stop-color="#0078be"/>
      <stop offset=".93" stop-color="#19ab6e"/>
    </linearGradient>
    <linearGradient id="Gradiente_sem_nome_267" data-name="Gradiente sem nome 267" x1="116.25" y1="183.61" x2="10.88" y2="152.12" gradientTransform="translate(37 -21.61) rotate(13.65)" gradientUnits="userSpaceOnUse">
      <stop offset="0" stop-color="#7bb9e7"/>
      <stop offset=".06" stop-color="#71b4e3"/>
      <stop offset=".17" stop-color="#58a6db"/>
      <stop offset=".31" stop-color="#2f90cd"/>
      <stop offset=".44" stop-color="#0078be"/>
      <stop offset=".82" stop-color="#19ab6e"/>
    </linearGradient>
    <linearGradient id="Gradiente_sem_nome_266" data-name="Gradiente sem nome 266" x1="74.33" y1="109.78" x2="32.06" y2="66.37" gradientUnits="userSpaceOnUse">
      <stop offset="0" stop-color="#7bb9e7"/>
      <stop offset=".07" stop-color="#71b4e3"/>
      <stop offset=".19" stop-color="#58a6db"/>
      <stop offset=".34" stop-color="#2f90cd"/>
      <stop offset=".48" stop-color="#0078be"/>
      <stop offset=".9" stop-color="#19ab6e"/>
    </linearGradient>
    <linearGradient id="Gradiente_sem_nome_256" data-name="Gradiente sem nome 256" x1="213.48" y1="118.6" x2="269.2" y2="80.12" gradientUnits="userSpaceOnUse">
      <stop offset="0" stop-color="#7bb9e7"/>
      <stop offset=".04" stop-color="#71b4e3"/>
      <stop offset=".1" stop-color="#58a6db"/>
      <stop offset=".18" stop-color="#2f90cd"/>
      <stop offset=".26" stop-color="#0078be"/>
      <stop offset=".58" stop-color="#19ab6e"/>
    </linearGradient>
    <linearGradient id="Céu_1" data-name="Céu 1" x1="110.88" y1="200.44" x2="141.5" y2="200.44" gradientUnits="userSpaceOnUse">
      <stop offset="0" stop-color="#7bb9e7"/>
      <stop offset=".08" stop-color="#71b4e3"/>
      <stop offset=".22" stop-color="#58a6db"/>
      <stop offset=".4" stop-color="#2f90cd"/>
      <stop offset=".57" stop-color="#0078be"/>
      <stop offset="1" stop-color="#154f9e"/>
    </linearGradient>
    <linearGradient id="Céu_1-2" data-name="Céu 1" x1="163.39" y1="190.5" x2="202.71" y2="190.5" xlink:href="#Céu_1"/>
    <linearGradient id="Céu_1-3" data-name="Céu 1" x1="158.42" y1="163.28" x2="178.63" y2="163.28" xlink:href="#Céu_1"/>
    <linearGradient id="Céu_19" data-name="Céu 19" x1="146" y1="221.61" x2="155.41" y2="221.61" gradientUnits="userSpaceOnUse">
      <stop offset=".03" stop-color="#4f2756"/>
      <stop offset=".29" stop-color="#815d9c"/>
      <stop offset=".48" stop-color="#b88dbf"/>
      <stop offset=".65" stop-color="#d1b9da"/>
      <stop offset=".69" stop-color="#d2b5d4"/>
      <stop offset=".74" stop-color="#d7acc4"/>
      <stop offset=".76" stop-color="#dba7ba"/>
      <stop offset=".88" stop-color="#e8c4b5"/>
      <stop offset="1" stop-color="#fad58a"/>
    </linearGradient>
    <linearGradient id="Céu_1-4" data-name="Céu 1" x1="143.5" y1="221.61" x2="157.91" y2="221.61" xlink:href="#Céu_1"/>
    <linearGradient id="Céu_19-2" data-name="Céu 19" x1="127.08" y1="415.03" x2="144.95" y2="415.03" gradientTransform="translate(288.42 -412.33) rotate(27.43) scale(.98 1.33)" xlink:href="#Céu_19"/>
    <linearGradient id="Céu_1-5" data-name="Céu 1" x1="125.58" y1="415.03" x2="146.45" y2="415.03" gradientTransform="translate(288.42 -412.33) rotate(27.43) scale(.98 1.33)" xlink:href="#Céu_1"/>
    <linearGradient id="Céu_19-3" data-name="Céu 19" x1="274.09" y1="122.57" x2="294.98" y2="122.57" gradientTransform="translate(262.67 -46.5) rotate(157.09) scale(.67 -1.05)" xlink:href="#Céu_19"/>
    <linearGradient id="Céu_1-6" data-name="Céu 1" x1="272.59" y1="122.57" x2="296.48" y2="122.57" gradientTransform="translate(262.67 -46.5) rotate(157.09) scale(.67 -1.05)" xlink:href="#Céu_1"/>
    <linearGradient id="Gradiente_sem_nome_4" data-name="Gradiente sem nome 4" x1="177.88" y1="113.81" x2="199.81" y2="84.61" gradientUnits="userSpaceOnUse">
      <stop offset=".17" stop-color="#7bb9e7"/>
      <stop offset=".22" stop-color="#71afe0"/>
      <stop offset=".31" stop-color="#5996cf"/>
      <stop offset=".42" stop-color="#316db2"/>
      <stop offset=".49" stop-color="#154f9e"/>
      <stop offset="1" stop-color="#19ab6e"/>
    </linearGradient>
    <linearGradient id="Gradiente_sem_nome_259" data-name="Gradiente sem nome 259" x1="118.13" y1="108.45" x2="104.11" y2="78.05" gradientUnits="userSpaceOnUse">
      <stop offset="0" stop-color="#7bb9e7"/>
      <stop offset=".1" stop-color="#73b7dd"/>
      <stop offset=".27" stop-color="#5eb4c4"/>
      <stop offset=".49" stop-color="#3db09b"/>
      <stop offset=".69" stop-color="#19ab6e"/>
    </linearGradient>
  </defs>
  <g>
    <path class="cls-9" d="M189.85,203.94h4.8v56.4h-4.8v-56.4ZM197.05,203.94h4.8v56.4h-4.8v-56.4Z"/>
    <path class="cls-9" d="M227.61,203.94h5.12l-19.76,56.4h-5.04l19.68-56.4ZM235.29,203.94h6.32l19.76,56.4h-5.12l-17.84-50.88-1.28,3.76,16.48,47.12h-5.12l-4.16-12h-19.52l-4.16,12h-5.04l19.68-56.4ZM226.49,243.54h16.16l-.8-2.4h-14.48l-.88,2.4ZM229.05,236.34h11.12l-5.52-16.08-5.6,16.08Z"/>
    <path class="cls-9" d="M263.93,233.94h19.2v4.8h-19.2v-4.8ZM263.93,241.14h19.2v4.8h-19.2v-4.8Z"/>
    <path class="cls-9" d="M314.17,217.06c-1.04-1.2-3.52-2.24-6.16-2.24-3.92,0-6.64,2.32-6.64,5.68,0,2.16,1.36,4.24,3.44,4.64l10.08,2.88c7.2,1.76,11.28,8.96,11.28,16,0,10.48-9.36,17.44-19.92,17.44-7.52,0-14.24-3.04-17.92-7.36l3.92-2.88c2.72,2.88,8.08,5.44,13.76,5.44,8.16,0,15.28-4.8,15.28-12.32,0-5.28-2.8-10.56-8.08-12l-10-2.64c-4.16-1.12-6.56-5.52-6.56-9.52,0-6.16,5.44-10.16,11.6-10.16,4,0,7.52,1.76,9.6,3.92l-3.68,3.12ZM319.61,212.42c-2.4-2.64-6.72-4.8-11.6-4.8-7.36,0-13.84,5.04-13.84,12.56,0,5.2,2.96,10.48,8.16,11.84l10,2.64c4.08,1.12,6.56,5.52,6.56,9.6,0,6.08-6,10-12.96,10-4.8,0-9.44-1.92-12-4.72l3.92-2.88c1.52,1.36,4.72,2.8,8.08,2.8,4.72,0,8.16-2.16,8.16-5.52,0-2.16-1.36-4.24-3.44-4.72l-10-2.88c-7.2-1.76-11.28-8.88-11.28-15.92,0-10.64,8.88-17.6,18.72-17.6,6.4,0,12,2.72,15.36,6.48l-3.84,3.12Z"/>
    <path class="cls-9" d="M337.13,203.94h38.4v4.8h-38.4v-4.8ZM337.13,211.14h38.4v4.8h-26.4v9.6h25.2v4.8h-25.2v2.4h25.2v4.8h-25.2v10.8h27.6v4.8h-27.6v2.4h27.6v4.8h-32.4v-44.4h-2.4v44.4h-4.8v-49.2Z"/>
    <path class="cls-9" d="M387.53,203.94h4.8v56.4h-4.8v-56.4ZM394.73,203.94h4.8v56.4h-4.8v-56.4Z"/>
    <path class="cls-9" d="M411.21,203.94h38.4v4.8h-38.4v-4.8ZM411.21,211.14h38.4v4.8h-26.4v9.6h24v4.8h-24v2.4h24v4.8h-24v22.8h-4.8v-44.4h-2.4v44.4h-4.8v-49.2Z"/>
    <path class="cls-9" d="M458.64,203.94h38.4v4.8h-38.4v-4.8ZM458.64,211.14h38.4v4.8h-26.4v9.6h25.2v4.8h-25.2v2.4h25.2v4.8h-25.2v10.8h27.6v4.8h-27.6v2.4h27.6v4.8h-32.4v-44.4h-2.4v44.4h-4.8v-49.2Z"/>
    <path class="cls-9" d="M546.48,260.34l-11.76-21.6c-.32.08-.72,0-1.04,0h-1.84l11.76,21.6h-5.44l-11.76-21.6h-5.36v21.6h-4.8v-44.4h-2.4v44.4h-4.8v-49.2h24.64c5.68,0,10.24,4.56,10.24,10.24s-4.56,10.16-10.24,10.16h-12.64v2.4h12.64c6.96,0,12.64-5.6,12.64-12.56s-5.68-12.64-12.64-12.64h-24.64v-4.8h24.64c9.6,0,17.44,7.84,17.44,17.44,0,7.52-4.8,13.92-11.52,16.32l12.32,22.64h-5.44ZM521.04,215.94v10.8h12.64c3.04,0,5.44-2.32,5.44-5.36s-2.4-5.44-5.44-5.44h-12.64Z"/>
  </g>
  <g>
    <path class="cls-8" d="M198.46,189.67c18.63-11.23,36.71-22.11,54.79-33-.31-.65-.63-1.29-.94-1.94-19.15,8.1-38.3,16.2-58.16,24.61,12.23-35.16,61-53.03,105.64-46.61-20.26,40.97-62.87,67.11-101.33,56.95Z"/>
    <path class="cls-7" d="M148.2,46.39c-1.84,18.2-3.68,36.39-5.66,55.98-10.05-9.03-15.48-19.11-18.25-30.7-4.45-18.63,1.08-35.56,9.94-51.73,3.33-6.09,7.66-11.67,11.56-17.46,1.45-2.15,3.08-3.91,5.34-.81,16.18,22.16,27.85,45.65,20.79,73.84-2.51,10.02-7.83,18.87-16.94,26.61-1.48-19.23-2.88-37.47-4.28-55.7-.83,0-1.66-.02-2.49-.03Z"/>
    <path class="cls-13" d="M108.93,177.14c-18.96-8.78-37.4-17.31-55.83-25.85-.36.62-.72,1.24-1.08,1.86,17.08,11.04,34.16,22.08,51.39,33.22-31.63,9.65-75.14-13.65-95.89-57.74,38.53-4.09,89.52,10.67,101.39,48.51Z"/>
    <path class="cls-14" d="M90.91,117.39c-13.09-10.94-25.26-21.12-37.44-31.29-.49.48-.98.97-1.47,1.45,10.24,12.16,20.48,24.32,31.67,37.61-18.77-.1-32.76-6.68-43.55-19.72-10.07-12.18-14.04-26.77-16.74-41.78-.46-2.57-.67-5.25,3.82-4.53,19.7,3.14,37.86,9.42,51.67,24.24,8.33,8.94,11.62,18.46,12.05,34.03Z"/>
    <path class="cls-10" d="M204.83,125.46c-.04-22.75,10.99-36.7,28.35-46.8,10.54-6.14,22.15-9.35,34.22-11.37,3.95-.66,5.67.09,5.01,4.03-3.28,19.63-9.31,38.05-26.04,51.11-9.49,7.4-20.54,10.84-34.27,10.69,11.3-13.39,21.73-25.75,32.16-38.11-.48-.47-.96-.93-1.44-1.4-12.16,10.2-24.33,20.39-37.99,31.85Z"/>
    <path class="cls-6" d="M137.97,257.64v-59.52l-10.59-10.12v-11.27l-12.23-11.74v-21.75c.59-.16,1.03-.68,1.03-1.3,0-.74-.63-1.35-1.4-1.35s-1.4.6-1.4,1.35c0,.62.44,1.14,1.03,1.3v22.05l12.23,11.74v11.27l10.59,10.12v59.22c-.59.16-1.03.68-1.03,1.3,0,.74.63,1.35,1.4,1.35s1.4-.6,1.4-1.35c0-.62-.44-1.14-1.03-1.3Z"/>
    <path class="cls-5" d="M168.97,253.84c0-.74-.48-1.35-1.13-1.54v-58.41l17.29-17.93v-25.87l13.94-14.46v-6.93c.65-.19,1.13-.8,1.13-1.54,0-.88-.69-1.6-1.54-1.6s-1.54.72-1.54,1.6c0,.74.48,1.35,1.13,1.54v6.58l-13.94,14.46v25.87l-17.29,17.93v58.76c-.65.19-1.13.8-1.13,1.54,0,.88.69,1.6,1.54,1.6s1.54-.72,1.54-1.6Z"/>
    <path class="cls-3" d="M174.3,140.79v24.26l-12.73,4.29v16.43c-.95.09-1.64.38-1.64.73,0,.42,1,.76,2.24.76s2.24-.34,2.24-.76c0-.35-.7-.64-1.64-.73v-16.26l12.73-4.29v-24.42c.95-.09,1.64-.38,1.64-.73,0-.42-1-.76-2.24-.76s-2.24.34-2.24.76c0,.35.7.64,1.64.73Z"/>
    <path class="cls-4" d="M153.49,269.73c-1.06,0-1.93-.59-1.93-1.33,0-.61.6-1.12,1.42-1.27v-80.75l-5.56-3.82v-6.47c-.81-.16-1.42-.66-1.42-1.27,0-.73.86-1.33,1.93-1.33s1.93.59,1.93,1.33c0,.61-.6,1.12-1.42,1.27v6.18l5.56,3.82v81.04c.81.16,1.42.66,1.42,1.27,0,.73-.86,1.33-1.93,1.33Z"/>
    <path class="cls-2" d="M155.39,120.49l6.28,15.26-11.51,22.01c-.77-.19-1.54.07-1.87.7-.39.75.01,1.74.9,2.2s1.94.22,2.33-.53c.33-.63.1-1.41-.5-1.92l11.67-22.31-6.42-15.6c.62-.34.89-1.05.6-1.77-.35-.86-1.38-1.39-2.29-1.18-.91.21-1.36,1.07-1.01,1.93.29.71,1.05,1.19,1.82,1.21Z"/>
    <path class="cls-1" d="M134.01,129.48l-5.48,12.94,8.85,20.93c.63-.09,1.26.23,1.51.83.3.72-.05,1.55-.79,1.86s-1.58-.02-1.89-.73c-.25-.6-.05-1.27.46-1.66l-8.97-21.22,5.6-13.23c-.5-.37-.7-1.04-.44-1.64.31-.73,1.15-1.09,1.89-.8.74.29,1.08,1.11.78,1.83-.26.61-.89.95-1.51.88Z"/>
    <path class="cls-11" d="M169.56,122.08c-3.35-15.5,1.66-26.43,11.28-35.57,5.84-5.55,12.79-9.24,20.2-12.18,2.42-.96,3.64-.67,3.79,2.1.78,13.8-.38,27.14-9.17,38.21-4.98,6.27-11.54,10.05-20.34,11.72,5.27-10.59,10.12-20.36,14.98-30.14-.38-.26-.75-.51-1.13-.77-6.28,8.52-12.56,17.05-19.62,26.62Z"/>
    <path class="cls-12" d="M121.61,127.98c-14.71-6.81-20.62-17.31-22.26-30.29-1-7.88.2-15.49,2.29-23,.68-2.46,1.66-3.22,4.02-1.66,11.76,7.77,21.97,16.76,25.7,30.26,2.11,7.65,1.22,15.01-2.75,22.82-5.47-10.49-10.52-20.17-15.57-29.85-.44.13-.87.27-1.31.4,3.16,10.02,6.33,20.05,9.88,31.31Z"/>
  </g>
</svg>